<?xml version="1.0" encoding="UTF-8" standalone="no"?>
<svg
   xmlns:dc="http://purl.org/dc/elements/1.1/"
   xmlns:cc="http://creativecommons.org/ns#"
   xmlns:rdf="http://www.w3.org/1999/02/22-rdf-syntax-ns#"
   xmlns:svg="http://www.w3.org/2000/svg"
   xmlns="http://www.w3.org/2000/svg"
   xmlns:sodipodi="http://sodipodi.sourceforge.net/DTD/sodipodi-0.dtd"
   xmlns:inkscape="http://www.inkscape.org/namespaces/inkscape"
   inkscape:version="1.1-dev (8c0d2cc, 2019-12-20)"
   sodipodi:docname="airo_title_iocn.svg"
   id="svg7204"
   version="1.1"
   viewBox="0 0 31.550997 28.450995"
   height="28.450994mm"
   width="31.550997mm">
  <defs
     id="defs7198" />
  <sodipodi:namedview
     fit-margin-bottom="0"
     fit-margin-right="0"
     fit-margin-left="0"
     fit-margin-top="0"
     inkscape:window-maximized="1"
     inkscape:window-y="-8"
     inkscape:window-x="-8"
     inkscape:window-height="1028"
     inkscape:window-width="1920"
     showgrid="false"
     inkscape:document-rotation="0"
     inkscape:current-layer="layer1"
     inkscape:document-units="mm"
     inkscape:cy="-261.32813"
     inkscape:cx="1018.8769"
     inkscape:zoom="0.28625"
     inkscape:pageshadow="2"
     inkscape:pageopacity="0.0"
     borderopacity="1.0"
     bordercolor="#666666"
     pagecolor="#ffffff"
     id="base" />
  <metadata
     id="metadata7201">
    <rdf:RDF>
      <cc:Work
         rdf:about="">
        <dc:format>image/svg+xml</dc:format>
        <dc:type
           rdf:resource="http://purl.org/dc/dcmitype/StillImage" />
        <dc:title></dc:title>
      </cc:Work>
    </rdf:RDF>
  </metadata>
  <g
     transform="translate(-89.753668,-144.04531)"
     id="layer1"
     inkscape:groupmode="layer"
     inkscape:label="Layer 1">
    <g
       transform="matrix(0.09816544,0,0,0.09816544,90.651283,144.36919)"
       id="g1657-8-4"
       style="display:inline;opacity:1"
       inkscape:export-xdpi="96"
       inkscape:export-ydpi="96">
      <rect
         style="color:#000000;display:inline;overflow:visible;fill:#145bcc;fill-opacity:1;stroke-width:0.264999;stroke-linecap:round;stroke-linejoin:round;paint-order:markers fill stroke;stop-color:#000000"
         id="rect3474-6-4"
         width="20.321463"
         height="85.350143"
         x="117.46964"
         y="147.09949" />
      <rect
         y="147.09949"
         x="155.33173"
         height="85.350143"
         width="20.535374"
         id="rect3476-1-8"
         style="color:#000000;display:inline;overflow:visible;fill:#145bcc;fill-opacity:1;stroke-width:0.26639;stroke-linecap:round;stroke-linejoin:round;paint-order:markers fill stroke;stop-color:#000000" />
      <path
         style="color:#000000;display:inline;overflow:visible;fill:#145bcc;fill-opacity:1;stroke-width:0.264999;stroke-linecap:round;stroke-linejoin:round;paint-order:markers fill stroke;stop-color:#000000"
         d="m 201.75023,232.66353 c -1.92519,-3.63647 -26.52486,-48.77151 -26.52486,-48.77151 h 21.70627 l 28.13479,48.77151 z"
         id="path3478-0-2"
         inkscape:connector-curvature="0"
         sodipodi:nodetypes="ccccc" />
      <path
         id="path3480-4-0"
         style="color:#000000;display:inline;overflow:visible;fill:#145bcc;fill-opacity:1;stroke:none;stroke-width:0.264999;stroke-linecap:round;stroke-linejoin:round;stroke-opacity:1;paint-order:markers fill stroke;stop-color:#000000"
         d="m 155.33185,147.09927 0.21394,51.76635 28.87782,-0.21394 c 0,0 12.83469,-2.13898 18.82418,-2.78071 5.98948,-0.64173 20.32127,-10.48155 16.89871,-28.87782 -3.29059,-17.68693 -25.16573,-19.85061 -25.16573,-19.85061 z m 20.53518,16.68529 14.75979,-0.32084 c 0,0 6.63147,1.17619 8.87753,5.56135 2.24606,4.38516 0.48131,10.32139 -3.52951,12.62093 -4.01081,2.29954 -7.59385,2.13889 -7.59385,2.13889 l -12.51396,0.10697 z"
         inkscape:connector-curvature="0"
         sodipodi:nodetypes="cccsscccccsccc" />
      <path
         style="color:#000000;display:inline;overflow:visible;fill:#145bcc;fill-opacity:1;stroke:none;stroke-width:0.264999;stroke-linecap:round;stroke-linejoin:round;stroke-opacity:1;paint-order:markers fill stroke;stop-color:#000000"
         d="M 40.824518,232.51094 72.464036,147.5079 54.464413,147.35665 18.740951,232.47939 Z"
         id="path3485-0-8"
         inkscape:connector-curvature="0"
         sodipodi:nodetypes="ccccc" />
      <rect
         style="color:#000000;display:inline;overflow:visible;fill:#145bcc;fill-opacity:1;stroke:none;stroke-width:0.275349;stroke-linecap:round;stroke-linejoin:round;stroke-opacity:1;paint-order:markers fill stroke;stop-color:#000000"
         id="rect3487-5-16"
         width="59.141605"
         height="16.789562"
         x="35.708508"
         y="199.16203" />
      <path
         inkscape:connector-curvature="0"
         id="path3489-6-2"
         d="M 87.136462,232.50534 55.523683,147.5079 74.581637,147.35665 110.38532,232.53287 Z"
         style="color:#000000;display:inline;overflow:visible;fill:#145bcc;fill-opacity:1;stroke:none;stroke-width:0.264999;stroke-linecap:round;stroke-linejoin:round;stroke-opacity:1;paint-order:markers fill stroke;stop-color:#000000"
         sodipodi:nodetypes="ccccc" />
      <path
         id="path3493-6-8"
         style="color:#000000;display:inline;overflow:visible;fill:#145bcc;fill-opacity:1;stroke:none;stroke-width:0.288565;stroke-linecap:round;stroke-linejoin:round;stroke-opacity:1;paint-order:markers fill stroke;stop-color:#000000"
         d="m 263.27513,170.88852 a 33.189193,31.676623 0 0 0 -33.18919,31.67662 33.189193,31.676623 0 0 0 33.18919,31.67662 33.189193,31.676623 0 0 0 33.18918,-31.67662 33.189193,31.676623 0 0 0 -33.18918,-31.67662 z m 0.15141,15.66261 a 14.434286,16.014208 0 0 1 14.43426,16.01401 14.434286,16.014208 0 0 1 -14.43426,16.01401 14.434286,16.014208 0 0 1 -14.43426,-16.01401 14.434286,16.014208 0 0 1 14.43426,-16.01401 z"
         inkscape:connector-curvature="0" />
      <path
         id="path3500-6-6"
         style="color:#000000;display:inline;overflow:visible;fill:#145bcc;fill-opacity:1;stroke:none;stroke-width:0.264999;stroke-linecap:round;stroke-linejoin:round;stroke-opacity:1;paint-order:markers fill stroke;stop-color:#000000"
         d="M 165.97203,-3.2992955 86.986666,126.3486 165.97306,48.645337 Z m 0,0 0.001,51.9446325 78.98697,77.704813 z"
         inkscape:connector-curvature="0"
         sodipodi:nodetypes="cccccccc" />
      <path
         id="path3502-2-3"
         style="color:#000000;display:inline;overflow:visible;fill:#145bcc;fill-opacity:1;stroke:none;stroke-width:0.264999;stroke-linecap:round;stroke-linejoin:round;stroke-opacity:1;paint-order:markers fill stroke;stop-color:#000000"
         d="m 165.97564,66.76878 -26.28366,25.783437 26.30072,-0.08992 26.2387,0.08992 z"
         inkscape:connector-curvature="0" />
      <path
         id="path3504-2-6"
         style="color:#000000;display:inline;overflow:visible;fill:#145bcc;fill-opacity:1;stroke:none;stroke-width:0.0649999;stroke-linecap:round;stroke-linejoin:round;stroke-miterlimit:4;stroke-dasharray:none;stroke-opacity:1;paint-order:markers fill stroke;stop-color:#000000"
         d="m 135.62763,96.884255 -4.43849,4.456565 h 33.88682 1.2423 34.41598 l -4.43848,-4.456565 h -30.19144 -0.81442 z"
         inkscape:connector-curvature="0" />
      <path
         id="path3506-6-4"
         style="color:#000000;display:inline;overflow:visible;fill:#145bcc;fill-opacity:1;stroke:none;stroke-width:0.0649999;stroke-linecap:round;stroke-linejoin:round;stroke-miterlimit:4;stroke-dasharray:none;stroke-opacity:1;paint-order:markers fill stroke;stop-color:#000000"
         d="m 126.47159,105.7235 -4.38526,4.40335 h 43.6733 0.4036 43.67382 l -4.38526,-4.40335 h -38.44985 -2.61018 z"
         inkscape:connector-curvature="0" />
      <path
         id="path3508-6-7"
         style="color:#000000;display:inline;overflow:visible;fill:#145bcc;fill-opacity:1;stroke:none;stroke-width:0.264999;stroke-linecap:round;stroke-linejoin:round;stroke-opacity:1;paint-order:markers fill stroke;stop-color:#000000"
         d="m 117.01481,115.08314 -5.96553,5.84512 52.70738,5.3e-4 h 3.8809 l 53.23654,-5.3e-4 -5.96553,-5.84512 h -47.30874 -3.80545 z"
         inkscape:connector-curvature="0" />
    </g>
    <g
       transform="matrix(0.21585838,0,0,0.21585838,89.733589,172.45615)"
       style="color:#000000;font-size:19.05px;line-height:0%;font-family:'Cocogoose Pro';-inkscape-font-specification:'Cocogoose Pro';font-variation-settings:normal;text-align:start;text-decoration:none;text-decoration-line:none;text-decoration-color:#000000;white-space:pre;shape-inside:url(#rect1937-7-7);display:inline;overflow:visible;opacity:1;vector-effect:none;fill:#666666;fill-opacity:1;stroke:none;stroke-width:0.123012;stroke-linecap:round;stroke-linejoin:round;stroke-miterlimit:4;stroke-dasharray:none;stroke-dashoffset:0;stroke-opacity:1;paint-order:markers fill stroke;stop-color:#000000"
       id="text1935-8-55"
       aria-label="TRADING BOT">
      <path
         inkscape:connector-curvature="0"
         id="path7830"
         style="font-weight:300;font-family:'Open Sans';-inkscape-font-specification:'Open Sans Light';letter-spacing:2.64583px;word-spacing:0.00264583px;stroke-width:0.123012"
         d="M 5.4694334,0 H 4.5113524 V -12.706201 H 0.09301757 v -0.892968 H 9.8877682 v 0.892968 H 5.4694334 Z" />
      <path
         inkscape:connector-curvature="0"
         id="path7832"
         style="font-weight:300;font-family:'Open Sans';-inkscape-font-specification:'Open Sans Light';letter-spacing:2.64583px;word-spacing:0.00264583px;stroke-width:0.123012"
         d="M 15.491557,-5.9252195 V 0 h -0.948779 v -13.599169 h 3.237012 q 2.530078,0 3.739306,0.939477 1.209229,0.930176 1.209229,2.8091309 0,1.3673583 -0.725537,2.3068358 -0.716236,0.9394775 -2.185913,1.3487548 L 23.509672,0 h -1.134814 l -3.506763,-5.9252195 z m 0,-0.8185546 h 2.595191 q 1.720825,0 2.669604,-0.7627442 0.948779,-0.7720458 0.948779,-2.2696288 0,-1.5533939 -0.930175,-2.2603269 -0.930176,-0.706934 -3.032373,-0.706934 h -2.251026 z" />
      <path
         inkscape:connector-curvature="0"
         id="path7834"
         style="font-weight:300;font-family:'Open Sans';-inkscape-font-specification:'Open Sans Light';letter-spacing:2.64583px;word-spacing:0.00264583px;stroke-width:0.123012"
         d="M 35.047982,-4.7997068 H 29.522739 L 27.62518,0 h -1.051099 l 5.469434,-13.65498 h 0.604614 L 38.005941,0 h -1.069702 z m -5.181078,-0.8557617 h 4.864819 l -1.85105,-4.9020265 q -0.232544,-0.576709 -0.558105,-1.599902 -0.251148,0.892969 -0.548804,1.618506 z" />
      <path
         inkscape:connector-curvature="0"
         id="path7836"
         style="font-weight:300;font-family:'Open Sans';-inkscape-font-specification:'Open Sans Light';letter-spacing:2.64583px;word-spacing:0.00264583px;stroke-width:0.123012"
         d="m 52.892882,-6.9298093 q 0,3.4230467 -1.795239,5.1810789 Q 49.302404,0 45.823546,0 h -3.255615 v -13.599169 h 3.674194 q 3.255616,0 4.948535,1.702221 1.702222,1.702222 1.702222,4.9671387 z m -1.032495,0.037207 q 0,-2.9207518 -1.488281,-4.3904297 -1.47898,-1.478979 -4.353223,-1.478979 h -2.502172 v 11.92485283 h 2.251025 q 6.092651,0 6.092651,-6.05544413 z" />
      <path
         inkscape:connector-curvature="0"
         id="path7838"
         style="font-weight:300;font-family:'Open Sans';-inkscape-font-specification:'Open Sans Light';letter-spacing:2.64583px;word-spacing:0.00264583px;stroke-width:0.123012"
         d="m 58.682708,0 v -13.599169 h 0.948779 V 0 Z" />
      <path
         inkscape:connector-curvature="0"
         id="path7840"
         style="font-weight:300;font-family:'Open Sans';-inkscape-font-specification:'Open Sans Light';letter-spacing:2.64583px;word-spacing:0.00264583px;stroke-width:0.123012"
         d="m 76.016014,0 h -0.958081 l -8.055322,-12.073681 h -0.07441 q 0.111621,2.1580076 0.111621,3.2556149 V 0 h -0.911573 v -13.599169 h 0.94878 l 8.04602,12.0550773 h 0.05581 q -0.08371,-1.6743164 -0.08371,-3.1812011 v -8.8738762 h 0.920874 z" />
      <path
         inkscape:connector-curvature="0"
         id="path7842"
         style="font-weight:300;font-family:'Open Sans';-inkscape-font-specification:'Open Sans Light';letter-spacing:2.64583px;word-spacing:0.00264583px;stroke-width:0.123012"
         d="m 87.851977,-6.8553952 h 5.013648 v 6.20427218 q -1.971973,0.83715817 -4.436939,0.83715817 -3.218408,0 -4.939233,-1.81384275 -1.711523,-1.8231444 -1.711523,-5.1531736 0,-2.0742919 0.84646,-3.6741938 0.855761,-1.609204 2.43706,-2.48357 1.590601,-0.874365 3.646289,-0.874365 2.22312,0 3.990454,0.818555 l -0.381372,0.855762 q -1.767334,-0.818555 -3.664893,-0.818555 -2.688208,0 -4.269506,1.665014 -1.571997,1.6557133 -1.571997,4.4741458 0,3.06958 1.497583,4.6229734 1.497583,1.54409178 4.399731,1.54409178 1.878955,0 3.190503,-0.53020018 v -4.7811033 h -4.046265 z" />
      <path
         inkscape:connector-curvature="0"
         id="path7844"
         style="font-weight:300;font-family:'Open Sans';-inkscape-font-specification:'Open Sans Light';letter-spacing:2.64583px;word-spacing:0.00264583px;stroke-width:0.123012"
         d="m 106.51291,-13.599169 h 3.73001 q 2.52077,0 3.7021,0.855761 1.18132,0.855762 1.18132,2.585889 0,1.1813231 -0.72554,1.9719725 -0.71623,0.7813476 -2.10219,1.0045898 v 0.055811 q 1.6278,0.2418457 2.39055,1.0324951 0.77204,0.7813476 0.77204,2.185913 0,1.878955 -1.24643,2.8928465 Q 112.96833,0 110.6801,0 h -4.16719 z m 0.94878,6.0554437 h 2.99517 q 1.91616,0 2.78122,-0.6325195 0.87437,-0.6418213 0.87437,-1.9998782 0,-1.358056 -0.98599,-1.971972 -0.97668,-0.613916 -2.92075,-0.613916 h -2.74402 z m 0,0.8371582 v 5.86940893 h 3.19981 q 3.77651,0 3.77651,-3.06957993 0,-2.799829 -3.98115,-2.799829 z" />
      <path
         inkscape:connector-curvature="0"
         id="path7846"
         style="font-weight:300;font-family:'Open Sans';-inkscape-font-specification:'Open Sans Light';letter-spacing:2.64583px;word-spacing:0.00264583px;stroke-width:0.123012"
         d="m 132.53406,-6.8181882 q 0,3.2370116 -1.61851,5.1252683 -1.6185,1.87895505 -4.46484,1.87895505 -2.83704,0 -4.45554,-1.87895505 -1.61851,-1.8882567 -1.61851,-5.1438718 0,-3.2463133 1.62781,-5.1066653 1.63711,-1.869653 4.46484,-1.869653 2.84634,0 4.45554,1.878955 1.60921,1.869653 1.60921,5.1159668 z m -11.1249,0 q 0,2.9207518 1.30224,4.5206541 1.30225,1.59060053 3.73931,1.59060053 2.45566,0 3.74861,-1.58129873 1.30224,-1.5812988 1.30224,-4.5299559 0,-2.9393554 -1.30224,-4.5020508 -1.29295,-1.571997 -3.73001,-1.571997 -2.42776,0 -3.74861,1.581299 -1.31154,1.5812987 -1.31154,4.4927488 z" />
      <path
         inkscape:connector-curvature="0"
         id="path7848"
         style="font-weight:300;font-family:'Open Sans';-inkscape-font-specification:'Open Sans Light';letter-spacing:2.64583px;word-spacing:0.00264583px;stroke-width:0.123012"
         d="m 141.83995,0 h -0.95808 v -12.706201 h -4.41834 v -0.892968 h 9.79475 v 0.892968 h -4.41833 z" />
    </g>
  </g>
</svg>
