<?xml version="1.0" encoding="UTF-8" standalone="no"?>
<svg
   xmlns:dc="http://purl.org/dc/elements/1.1/"
   xmlns:cc="http://creativecommons.org/ns#"
   xmlns:rdf="http://www.w3.org/1999/02/22-rdf-syntax-ns#"
   xmlns:svg="http://www.w3.org/2000/svg"
   xmlns="http://www.w3.org/2000/svg"
   xmlns:sodipodi="http://sodipodi.sourceforge.net/DTD/sodipodi-0.dtd"
   xmlns:inkscape="http://www.inkscape.org/namespaces/inkscape"
   sodipodi:docname="Apple_icon.svg"
   inkscape:version="1.1-dev (8c0d2cc, 2019-12-20)"
   id="svg6763"
   version="1.1"
   viewBox="0 0 37.885963 37.885963"
   height="37.885963mm"
   width="37.885963mm">
  <defs
     id="defs6757" />
  <sodipodi:namedview
     inkscape:window-maximized="1"
     inkscape:window-y="-8"
     inkscape:window-x="-8"
     inkscape:window-height="716"
     inkscape:window-width="1366"
     fit-margin-bottom="0"
     fit-margin-right="0"
     fit-margin-left="0"
     fit-margin-top="0"
     showgrid="false"
     inkscape:document-rotation="0"
     inkscape:current-layer="g3505"
     inkscape:document-units="mm"
     inkscape:cy="-5.6843419e-14"
     inkscape:cx="14.285714"
     inkscape:zoom="0.94213836"
     inkscape:pageshadow="2"
     inkscape:pageopacity="0.0"
     borderopacity="1.0"
     bordercolor="#666666"
     pagecolor="#ffffff"
     id="base" />
  <metadata
     id="metadata6760">
    <rdf:RDF>
      <cc:Work
         rdf:about="">
        <dc:format>image/svg+xml</dc:format>
        <dc:type
           rdf:resource="http://purl.org/dc/dcmitype/StillImage" />
        <dc:title></dc:title>
      </cc:Work>
    </rdf:RDF>
  </metadata>
  <g
     transform="translate(6.8477433,-64.211777)"
     id="layer1"
     inkscape:groupmode="layer"
     inkscape:label="Layer 1">
    <g
       transform="translate(-68.190555,508.6908)"
       id="g3505"
       style="display:inline;fill:#ffffff">
      <g
         id="g3500"
         transform="matrix(0.60225793,0,0,0.60225793,-213.6736,-494.51709)"
         style="opacity:1;fill:#ffffff;fill-opacity:1;stroke:none" />
      <path
         inkscape:connector-curvature="0"
         style="display:inline;opacity:1;fill:#000000;fill-opacity:1;stroke:none;stroke-width:0.175506;stroke-miterlimit:4;stroke-dasharray:none;stroke-opacity:1"
         fill-rule="nonzero"
         fill="#000000"
         id="path3503"
         d="m 80.671659,-434.40112 c 1.441931,0 3.249417,-1.00476 4.325785,-2.34447 0.974828,-1.21411 1.685636,-2.90966 1.685636,-4.60522 0,-0.23023 -0.02031,-0.46054 -0.06093,-0.64897 -1.604397,0.0628 -3.53374,1.10949 -4.691345,2.51198 -0.913897,1.06758 -1.746562,2.74221 -1.746562,4.4587 0,0.25113 0.04066,0.50236 0.06093,0.58615 0.101553,0.0199 0.26401,0.0417 0.426488,0.0417 z m -5.077211,25.32882 c 1.969953,0 2.843237,-1.36066 5.300607,-1.36066 2.497988,0 3.046328,1.31875 5.239687,1.31875 2.152737,0 3.594668,-2.05139 4.955358,-4.06096 1.523168,-2.30261 2.152739,-4.56341 2.193363,-4.66803 -0.142118,-0.0419 -4.264865,-1.7793 -4.264865,-6.65663 0,-4.22845 3.249417,-6.13334 3.4322,-6.27988 -2.152739,-3.18181 -5.422464,-3.26556 -6.316056,-3.26556 -2.416751,0 -4.386714,1.50718 -5.625549,1.50718 -1.340391,0 -3.107262,-1.42343 -5.199071,-1.42343 -3.980539,0 -8.021998,3.39113 -8.021998,9.79657 0,3.97726 1.502852,8.18478 3.350962,10.90607 1.584088,2.30261 2.965087,4.18658 4.955362,4.18658 z" />
    </g>
  </g>
</svg>
