<?xml version="1.0" encoding="UTF-8" standalone="no"?>
<svg
   xmlns:dc="http://purl.org/dc/elements/1.1/"
   xmlns:cc="http://creativecommons.org/ns#"
   xmlns:rdf="http://www.w3.org/1999/02/22-rdf-syntax-ns#"
   xmlns:svg="http://www.w3.org/2000/svg"
   xmlns="http://www.w3.org/2000/svg"
   xmlns:sodipodi="http://sodipodi.sourceforge.net/DTD/sodipodi-0.dtd"
   xmlns:inkscape="http://www.inkscape.org/namespaces/inkscape"
   sodipodi:docname="Insta_white_icon.svg"
   inkscape:version="1.1-dev (8c0d2cc, 2019-12-20)"
   id="svg48357"
   version="1.1"
   viewBox="0 0 23.00654 23.006741"
   height="23.006741mm"
   width="23.00654mm">
  <defs
     id="defs48351" />
  <sodipodi:namedview
     inkscape:window-maximized="1"
     inkscape:window-y="-8"
     inkscape:window-x="-8"
     inkscape:window-height="716"
     inkscape:window-width="1366"
     fit-margin-bottom="0"
     fit-margin-right="0"
     fit-margin-left="0"
     fit-margin-top="0"
     showgrid="false"
     inkscape:document-rotation="0"
     inkscape:current-layer="layer1"
     inkscape:document-units="mm"
     inkscape:cy="55.964809"
     inkscape:cx="2.7552341"
     inkscape:zoom="2.5018639"
     inkscape:pageshadow="2"
     inkscape:pageopacity="0.0"
     borderopacity="1.0"
     bordercolor="#666666"
     pagecolor="#ffffff"
     id="base" />
  <metadata
     id="metadata48354">
    <rdf:RDF>
      <cc:Work
         rdf:about="">
        <dc:format>image/svg+xml</dc:format>
        <dc:type
           rdf:resource="http://purl.org/dc/dcmitype/StillImage" />
        <dc:title></dc:title>
      </cc:Work>
    </rdf:RDF>
  </metadata>
  <g
     transform="translate(-163.38427,-108.14999)"
     id="layer1"
     inkscape:groupmode="layer"
     inkscape:label="Layer 1">
    <g
       style="clip-rule:evenodd;fill-rule:evenodd;stroke-linejoin:round;stroke-miterlimit:2"
       transform="matrix(1.1024314,0,0,1.1024314,48.159027,-217.70999)"
       id="g48264" />
    <g
       style="clip-rule:evenodd;fill-rule:evenodd;stroke-linejoin:round;stroke-miterlimit:2"
       transform="matrix(1.1024314,0,0,1.1024314,48.159027,-217.70999)"
       id="g48268" />
    <g
       id="g49022">
      <path
         id="path48314"
         style="clip-rule:evenodd;fill:#ffffff;fill-rule:nonzero;stroke-width:1.10243;stroke-linejoin:round;stroke-miterlimit:2"
         d="m 174.88699,108.14999 c -3.12429,0 -3.51565,0.0132 -4.74266,0.0695 -1.2237,0.0562 -2.06044,0.25026 -2.79246,0.53468 -0.75627,0.29435 -1.39788,0.68792 -2.03729,1.32733 -0.63941,0.63941 -1.03298,1.28103 -1.32623,2.03729 -0.28442,0.73202 -0.47956,1.56766 -0.53468,2.79246 -0.0562,1.22701 -0.0694,1.61837 -0.0694,4.74266 0,3.12429 0.0132,3.51566 0.0694,4.74266 0.0551,1.2248 0.25026,2.06045 0.53468,2.79246 0.29325,0.75627 0.68682,1.39788 1.32623,2.03729 0.63941,0.63941 1.28102,1.03298 2.03729,1.32733 0.73202,0.28333 1.56876,0.47846 2.79246,0.53468 1.22701,0.0551 1.61837,0.0684 4.74266,0.0684 3.12429,0 3.51565,-0.0132 4.74266,-0.0684 1.2248,-0.0562 2.06044,-0.25135 2.79246,-0.53468 0.75627,-0.29435 1.39788,-0.68792 2.03729,-1.32733 0.64051,-0.63941 1.03298,-1.28102 1.32733,-2.03729 0.28443,-0.73201 0.47845,-1.56766 0.53468,-2.79246 0.0562,-1.227 0.0694,-1.61837 0.0694,-4.74266 0,-3.12429 -0.0132,-3.51565 -0.0694,-4.74266 -0.0562,-1.2248 -0.25025,-2.06044 -0.53468,-2.79246 -0.29435,-0.75626 -0.68682,-1.39788 -1.32733,-2.03729 -0.63941,-0.63941 -1.28102,-1.03298 -2.03729,-1.32733 -0.73202,-0.28442 -1.56766,-0.47845 -2.79246,-0.53468 -1.22701,-0.0562 -1.61837,-0.0695 -4.74266,-0.0695 z m 0,2.07257 c 3.07137,0 3.43518,0.0121 4.64895,0.0673 1.12118,0.0518 1.72972,0.23923 2.13541,0.39687 0.53689,0.20836 0.92053,0.45751 1.32292,0.8599 0.40239,0.40239 0.65154,0.78603 0.8599,1.32292 0.15764,0.40569 0.34506,1.01424 0.39687,2.13651 0.0551,1.21268 0.0673,1.57648 0.0673,4.64785 0,3.07138 -0.0121,3.43518 -0.0673,4.64785 -0.0518,1.12228 -0.23923,1.73082 -0.39687,2.13652 -0.20836,0.53688 -0.45751,0.91942 -0.8599,1.32291 -0.40239,0.40239 -0.78603,0.65154 -1.32292,0.8599 -0.40569,0.15765 -1.01423,0.34506 -2.13541,0.39577 -1.21377,0.0551 -1.57647,0.0673 -4.64895,0.0673 -3.07137,0 -3.43518,-0.0121 -4.64785,-0.0673 -1.12117,-0.0507 -1.73082,-0.23812 -2.13651,-0.39577 -0.53689,-0.20836 -0.91943,-0.45751 -1.32182,-0.8599 -0.40239,-0.40349 -0.65264,-0.78603 -0.861,-1.32291 -0.15765,-0.4057 -0.34506,-1.01424 -0.39577,-2.13652 -0.0551,-1.21267 -0.0673,-1.57647 -0.0673,-4.64785 0,-3.07137 0.0121,-3.43517 0.0673,-4.64785 0.0507,-1.12227 0.23812,-1.73082 0.39577,-2.13651 0.20836,-0.53689 0.45861,-0.92053 0.861,-1.32292 0.40239,-0.40239 0.78493,-0.65154 1.32182,-0.8599 0.40569,-0.15764 1.01534,-0.34506 2.13651,-0.39687 1.21267,-0.0551 1.57648,-0.0673 4.64785,-0.0673 z"
         inkscape:connector-curvature="0" />
      <path
         id="path48318"
         style="clip-rule:evenodd;fill:#ffffff;fill-rule:nonzero;stroke-width:1.10243;stroke-linejoin:round;stroke-miterlimit:2"
         d="m 174.88699,123.48812 c -2.11777,0 -3.83426,-1.71649 -3.83426,-3.83426 0,-2.11777 1.71649,-3.83425 3.83426,-3.83425 2.11777,0 3.83426,1.71648 3.83426,3.83425 0,2.11777 -1.71649,3.83426 -3.83426,3.83426 z m 0,-9.74109 c -3.2621,0 -5.90683,2.64474 -5.90683,5.90683 0,3.2621 2.64473,5.90683 5.90683,5.90683 3.2632,0 5.90683,-2.64473 5.90683,-5.90683 0,-3.26209 -2.64363,-5.90683 -5.90683,-5.90683 z"
         inkscape:connector-curvature="0" />
      <path
         id="path48322"
         style="clip-rule:evenodd;fill:#ffffff;fill-rule:nonzero;stroke-width:1.10243;stroke-linejoin:round;stroke-miterlimit:2"
         d="m 182.40888,113.51332 c 0,0.76178 -0.61846,1.38024 -1.38135,1.38024 -0.76178,0 -1.38024,-0.61846 -1.38024,-1.38024 0,-0.76288 0.61846,-1.38025 1.38024,-1.38025 0.76289,0 1.38135,0.61737 1.38135,1.38025 z"
         inkscape:connector-curvature="0" />
    </g>
  </g>
</svg>
